<?xml version="1.0" encoding="iso-8859-1"?>
<!-- Uploaded to: SVG Repo, www.svgrepo.com, Generator: SVG Repo Mixer Tools -->
<svg height="800px" width="800px" version="1.1" id="Capa_1" xmlns="http://www.w3.org/2000/svg" xmlns:xlink="http://www.w3.org/1999/xlink" 
	 viewBox="0 0 12.879 12.879" xml:space="preserve">
<g>
	<path style="fill:#030104;" d="M12.856,0.057h-4.11v4.111h4.11V0.057z M12.136,3.447H9.467V0.778h2.669V3.447z M10.07,1.328h1.463
		v1.464H10.07V1.328z M0.089,4.15h4.11V0.04h-4.11V4.15z M0.81,0.76h2.669v2.669H0.81V0.76z M1.413,1.312h1.463v1.463H1.413V1.312z
		 M0,12.794h4.111V8.683H0V12.794z M0.721,9.403H3.39v2.67H0.721V9.403z M1.325,9.954h1.463v1.463H1.325V9.954z M4.789,8.184h0.43
		v0.459h0.474V8.17h-0.43V7.723h0.839V6.832H5.209v0.877h-0.38V7.237H4.354v0.473h0.435V8.184z M4.784,9.709h0.474v0.473H4.784
		V9.709z M4.661,12.101h0.474v0.473H4.661V12.101z M5.021,9.025h0.474V9.5H5.021V9.025z M0.562,5.826h0.475V5.352H0.562V4.893H0.089
		v0.474h0.473V5.826z M0.8,7.709h0.474v0.43h0.474V7.664H1.274V7.291h0.474V6.816H1.274v0.42H0.866V6.5H0.089v0.777H0.8V7.709z
		 M11.606,4.742h1.272v1.271h-1.272V4.742z M12.034,6.191h0.637v0.637h-0.637V6.191z M11.813,6.742h0.441v0.441h-0.441V6.742z
		 M12.242,9.025h0.637v0.637h-0.637V9.025z M12.554,12.018h-0.501v0.82h0.821v-0.809l0,0v-0.322h-0.32V12.018z M11.729,11.732h0.32
		v0.32h-0.32V11.732z M9.061,9.388V8.75H8.49V8.024H7.723V8.79h0.703v0.598H9.061z M12.384,9.982h-0.637v0.634h0.493v0.461h0.637
		v-0.636h-0.493V9.982z M8.57,11.076v-0.636H8V9.982H7.364v0.634h0.57v0.461C7.934,11.077,8.57,11.077,8.57,11.076z M10.19,5.13
		h0.637v0.636H10.19V5.13z M7.036,7.053h0.637V7.69H7.036V7.053z M9.02,6.734H8.33v1.274h1.273v-1.17h0.538v0.889h0.898V6.914h0.424
		V6.441h-0.475v0.387h-0.825V5.695H9.142V5.123h0.595V4.487H9.102v0.504H8.438v0.704H9.02V6.734z M6.587,10.938h0.58v0.58h-0.58
		V10.938z M7.608,3.703H7.105v0.503h0.472v0.785h0.851v-0.85h-0.82V3.703z M7.325,2.772h0.503v0.503H7.325V2.772z M4.854,2.523
		h0.502v0.503H4.854V2.523z M5.451,3.959h0.868V3.053h0.786V2.024H6.077v0.998H5.382v0.933h-0.79v0.859h0.859
		C5.451,4.814,5.451,3.959,5.451,3.959z M7.247,0.746h0.859v0.859H7.247V0.746z M5.226,1.952h0.859v-0.86H5.462V0.746H4.603v0.859
		h0.623V1.952z M7.935,5.97H7.356V5.328H6.719V4.804H5.657V5.25H5.021v1.061h1.061V5.866h0.415v0.321h0.722v0.501h0.716
		C7.935,6.688,7.935,5.97,7.935,5.97z M2.721,4.847h1.201v1.201H2.721V4.847z M6.852,10.103V9.571h-0.51V9.079H5.811V9.61h0.51
		v0.493H6.852z M10.136,9.414h0.373V8.941h-0.443V8.553H9.592v0.474h0.442v0.387H9.075v1.061h0.879v0.992h1.273v-1.274h-1.091
		C10.136,10.194,10.136,9.414,10.136,9.414z M10.83,9.388h1.061V8.517h0.527V7.914h0.456V7.277h-0.637v0.604h-0.456v0.445H10.83
		V9.388z M6.188,8.008h1.061v1.061H6.188V8.008z M1.667,5.9v0.778h0.665v0.599h0.389v0.668h1.201V6.744H3.109V6.5H2.444V5.9
		C2.444,5.9,1.667,5.9,1.667,5.9z M9.183,10.739h0.474v0.473H9.183V10.739z M6.103,10.518H4.898v1.205h0.911v0.359H5.262v0.58h0.58
		v-0.291H6.65v-0.84H6.103V10.518z M6.876,11.847h0.981v0.98H6.876V11.847z M8.423,11.4h0.981v0.98H8.423V11.4z M9.953,11.928h0.909
		v0.908H9.953V11.928z"/>
</g>
</svg>