<svg xmlns="http://www.w3.org/2000/svg" version="1.1" xmlns:xlink="http://www.w3.org/1999/xlink" xmlns:svgjs="http://svgjs.dev/svgjs" width="2000" height="1500" viewBox="0 0 2000 1500"><rect width="2000" height="1500" fill="#000000"></rect><g transform="matrix(0.44603033006244425,0,0,0.44603033006244425,552.5806798124848,250)"><svg viewBox="0 0 321 360" data-background-color="#ffffff" preserveAspectRatio="xMidYMid meet" height="2242" width="2000" xmlns="http://www.w3.org/2000/svg" xmlns:xlink="http://www.w3.org/1999/xlink"><g id="tight-bounds" transform="matrix(1,0,0,1,0.5001844044044219,0)"><svg viewBox="0 0 320 360" height="360" width="320"><g><svg></svg></g><g><svg viewBox="0 0 320 360" height="360" width="320"><g><path d="M294.684 112.125c-8.775-10.699-25.381-16.201-43-22.006-7.56-2.498-15.357-5.097-22.985-8.235-7.695-3.173-15.256-7.257-22.613-11.172-14.952-8.033-30.41-16.336-46.105-16.336-15.661 0-31.119 8.303-46.071 16.336-7.358 3.949-14.952 8.033-22.648 11.205-7.594 3.139-15.425 5.704-22.985 8.236-17.618 5.839-34.224 11.341-42.999 22.006-11.712 14.277-11.442 35.439-11.172 57.817 0.034 3.375 0.068 6.717 0.067 10.024 0 3.308-0.034 6.649-0.101 10.024-0.27 22.411-0.54 43.54 11.172 57.851 8.775 10.666 25.381 16.167 42.966 22.006 7.56 2.498 15.357 5.097 23.019 8.235 7.695 3.173 15.256 7.223 22.579 11.172 14.986 8.067 30.444 16.37 46.105 16.37 15.695 0 31.153-8.303 46.105-16.336 7.358-3.949 14.918-8.033 22.614-11.172 7.594-3.139 15.357-5.704 22.884-8.202 17.72-5.873 34.326-11.374 43.101-22.039 11.712-14.277 11.442-35.439 11.171-57.817-0.034-3.409-0.101-6.75-0.101-10.058 0-3.308 0.034-6.649 0.101-9.991 0.371-22.479 0.641-43.641-11.104-57.918zM305.552 103.215c-15.728-19.171-45.801-23.727-71.486-34.326-22.985-9.45-46.375-28.588-74.051-28.587-27.676 0-51.066 19.137-74.052 28.587-25.719 10.598-55.758 15.155-71.486 34.326-17.078 20.791-14.311 50.121-14.311 76.785 0 26.63-2.768 55.994 14.277 76.785 15.728 19.171 45.801 23.727 71.487 34.326 22.985 9.484 46.375 28.588 74.051 28.587 27.676 0 51.066-19.103 74.051-28.587 25.719-10.598 55.758-15.155 71.486-34.326 17.045-20.791 14.277-50.121 14.277-76.785 0.068-26.664 2.835-55.994-14.243-76.785zM309.872 189.923c0.304 23.221 0.574 45.059-12.083 60.483-9.518 11.577-26.664 17.281-44.822 23.289-7.56 2.498-15.29 5.063-22.715 8.134-7.493 3.071-14.952 7.088-22.175 10.969-15.458 8.303-31.355 16.842-48.062 16.842-16.707 0-32.604-8.539-47.995-16.808-7.257-3.915-14.75-7.932-22.243-11.003-7.527-3.105-15.256-5.67-22.748-8.134-18.192-6.008-35.338-11.712-44.823-23.289-12.623-15.391-12.353-37.262-12.083-60.415 0.034-3.375 0.101-6.683 0.101-9.991 0-3.308-0.034-6.615-0.067-9.991-0.304-23.154-0.574-45.025 12.083-60.415 9.518-11.577 26.664-17.247 44.822-23.289 7.527-2.498 15.256-5.063 22.749-8.134 7.493-3.105 14.986-7.122 22.242-11.003 15.391-8.269 31.322-16.842 47.995-16.842 16.673 0 32.604 8.539 47.995 16.808 7.257 3.915 14.75 7.932 22.243 11.003 7.493 3.105 15.256 5.637 22.715 8.134 18.158 6.008 35.338 11.712 44.822 23.289 12.657 15.425 12.387 37.262 12.083 60.416-0.034 3.409-0.101 6.717-0.101 9.99 0 3.308 0.034 6.615 0.067 9.957z" fill="#ffffff" fill-rule="nonzero" stroke="none" stroke-width="1" stroke-linecap="butt" stroke-linejoin="miter" stroke-miterlimit="10" stroke-dasharray="" stroke-dashoffset="0" font-family="none" font-weight="none" font-size="none" text-anchor="none" style="mix-blend-mode: normal" data-fill-palette-color="tertiary"></path></g><g transform="matrix(1,0,0,1,64,147.58811950846584)"><svg viewBox="0 0 192 64.82376098306834" height="64.82376098306834" width="192"><g><svg viewBox="0 0 192 64.82376098306834" height="64.82376098306834" width="192"><g><svg viewBox="0 0 192 64.82376098306834" height="64.82376098306834" width="192"><g id="textblocktransform"><svg viewBox="0 0 192 64.82376098306834" height="64.82376098306834" width="192" id="textblock"><g><svg viewBox="0 0 192 39.206299212598424" height="39.206299212598424" width="192"><g transform="matrix(1,0,0,1,0,0)"><svg width="192" viewBox="-0.39 -37.11 186.01999999999998 37.99" height="39.206299212598424" data-palette-color="#ffffff"><path d="M-0.39-29.25L-0.39-29.25Q-0.39-29.69-0.34-30.55-0.29-31.42-0.29-31.74L-0.29-31.74Q-0.29-31.86-0.34-32.62-0.39-33.37-0.39-33.94L-0.39-33.94Q-0.39-36.52 0.1-36.52L0.1-36.52Q0.29-36.52 0.44-36.47L0.44-36.47Q5.54-36.47 15.56-36.6 25.59-36.72 30.57-36.72L30.57-36.72Q31.81-36.72 32.14-36.5 32.47-36.28 32.47-35.64L32.47-35.64 32.47-34.96Q32.47-33.69 32.5-31.21 32.52-28.74 32.52-27.44L32.52-27.44Q32.52-26.17 31.84-26.17L31.84-26.17Q30.47-26.17 27.76-26.22 25.05-26.27 23.68-26.27L23.68-26.27 23.68-0.1Q23.51 0.63 22.85 0.68L22.85 0.68Q22 0.68 20.36 0.66 18.73 0.63 17.87 0.63L17.87 0.63Q17.82 0.63 17.77 0.68L17.77 0.68Q16.7 0.68 14.76 0.66 12.82 0.63 11.87 0.63L11.87 0.63 10.4 0.63Q9.91 0.68 8.98 0.68L8.98 0.68 8.01-0.49Q8.01-4.2 8.25-11.52 8.5-18.85 8.5-22.56L8.5-22.56Q8.5-22.73 8.48-23.12 8.47-23.51 8.47-23.75 8.47-24 8.44-24.37 8.4-24.73 8.31-24.96 8.23-25.2 8.11-25.43 7.98-25.66 7.78-25.77 7.57-25.88 7.28-25.88L7.28-25.88 0.29-25.88Q-0.39-26.07-0.39-29.25ZM49.95 0.63L34.18 0.63Q34.27-6.47 34.52-9.77L34.52-9.77Q34.52-20.02 34.81-30.57L34.81-30.57Q34.71-32.62 34.71-33.59L34.71-33.59 34.71-34.33Q34.62-35.4 34.62-36.08L34.62-36.08Q34.62-36.55 35.06-36.91L35.06-36.91Q39.06-36.62 47.26-36.62L47.26-36.62Q49.22-36.62 49.95-36.72L49.95-36.72 49.95 0.63ZM55.22-32.62L55.22-32.62Q55.22-36.6 56.05-37.06L56.05-37.06Q56.29-37.01 56.73-37.01L56.73-37.01 57.51-37.01Q58.27-37.01 60-37.06 61.74-37.11 62.64-37.11L62.64-37.11Q66.11-37.11 68.24-36.83 70.38-36.55 70.65-35.79L70.65-35.79 70.36-10.6 70.89-10.6Q72.85-10.69 73.63-10.68 74.41-10.67 76.5-10.58 78.58-10.5 80.51-10.5L80.51-10.5Q82.1-10.5 82.87-10.31 83.64-10.13 83.64-9.57L83.64-9.57 83.64-0.2Q83.32 0.68 72.75 0.68L72.75 0.68 55.85 0.68Q55.27-0.17 55.27-2.05L55.27-2.05 55.27-8.98Q55.27-12.04 55.32-18.02 55.37-24 55.37-27.05L55.37-27.05Q55.37-27.61 55.29-29.54 55.22-31.47 55.22-32.62ZM86.08-32.62L86.08-32.62Q86.08-36.6 86.91-37.06L86.91-37.06Q87.15-37.01 87.59-37.01L87.59-37.01 88.37-37.01Q89.13-37.01 90.86-37.06 92.6-37.11 93.5-37.11L93.5-37.11Q96.97-37.11 99.1-36.83 101.24-36.55 101.51-35.79L101.51-35.79 101.21-10.6 101.75-10.6Q103.7-10.69 104.48-10.68 105.27-10.67 107.35-10.58 109.44-10.5 111.37-10.5L111.37-10.5Q112.96-10.5 113.73-10.31 114.49-10.13 114.49-9.57L114.49-9.57 114.49-0.2Q114.18 0.68 103.61 0.68L103.61 0.68 86.71 0.68Q86.13-0.17 86.13-2.05L86.13-2.05 86.13-8.98Q86.13-12.04 86.17-18.02 86.22-24 86.22-27.05L86.22-27.05Q86.22-27.61 86.15-29.54 86.08-31.47 86.08-32.62ZM147.33-35.69L147.33-35.69Q145.79-32.62 141.58-24.65 137.37-16.67 135.22-12.21L135.22-12.21 135.22 0Q135.1 0.42 134.9 0.6 134.71 0.78 134.24 0.78L134.24 0.78Q131.95 0.78 127.42 0.83 122.89 0.88 120.47 0.88L120.47 0.88Q119.59 0 119.59-1.17L119.59-1.17Q119.69-1.71 119.72-2.39 119.74-3.08 119.72-4.13 119.69-5.18 119.69-5.47L119.69-5.47 119.69-7.23Q119.69-13.06 117.25-17.72L117.25-17.72Q116.88-18.48 116.48-19.31 116.08-20.14 115.71-20.92 115.35-21.7 114.96-22.51 114.57-23.32 114.19-24.12 113.81-24.93 113.44-25.71 113.08-26.49 112.67-27.32 112.27-28.15 111.88-28.91L111.88-28.91 107.7-35.91Q107.7-36.23 108.22-36.5 108.73-36.77 109.24-36.77L109.24-36.77 115.4-36.77Q116.66-36.77 119.22-36.74 121.77-36.72 123.01-36.72L123.01-36.72Q123.35-36.67 123.77-36.01 124.18-35.35 124.64-34.23 125.09-33.11 125.53-31.85 125.97-30.59 126.41-29.08 126.85-27.56 127.18-26.42 127.5-25.27 127.83-24.07 128.16-22.88 128.26-22.51L128.26-22.51 132.73-36.82 146.5-36.82Q146.84-36.77 147.01-36.54 147.18-36.3 147.33-35.69ZM149.26 0.68L148.18 0.1 148.18-10.94Q148.13-16.99 148.57-34.03L148.57-34.03 148.57-36.04Q148.57-36.57 148.77-36.67L148.77-36.67 165.56-36.67Q165.81-36.67 166.55-34.81 167.3-32.96 168.36-30.04 169.42-27.12 169.86-26.03L169.86-26.03 173.28-17.09 173.28-26.56Q173.28-27.78 173.34-31.04 173.4-34.3 173.38-36.13L173.38-36.13Q173.38-36.82 177.28-36.82L177.28-36.82Q178.5-36.82 180.63-36.77 182.75-36.72 183.24-36.72L183.24-36.72 185.09-36.72Q185.49-36.72 185.49-36.57L185.49-36.57Q185.63-29.79 185.63-17.14L185.63-17.14 185.63-0.2Q185.46 0.44 184.07 0.44L184.07 0.44 183.43 0.44Q182.17 0.44 179.7 0.49 177.23 0.54 175.96 0.54L175.96 0.54 168.79 0.54Q168.44 0.42 167.37-2.54L167.37-2.54Q166.22-5.74 163.95-11.79 161.68-17.85 161.41-18.55L161.41-18.55Q161.41-17.11 161.39-14.26 161.36-11.4 161.36-9.96L161.36-9.96Q161.36-8.89 161.41-6.74 161.46-4.59 161.46-3.52L161.46-3.52 161.46-0.44Q161.46 0.68 160.49 0.68L160.49 0.68 149.26 0.68ZM185.49-36.52L185.49-36.62 185.49-36.52Z" opacity="1" transform="matrix(1,0,0,1,0,0)" fill="#000000" class="wordmark-text-0" data-fill-palette-color="quaternary" id="text-0"></path></svg></g></svg></g><g transform="matrix(1,0,0,1,24,48.46196550551181)"><svg viewBox="0 0 144 16.36179547755653" height="16.36179547755653" width="144"><g transform="matrix(1,0,0,1,0,0)"><svg width="144" viewBox="0.4 -39.65 444.40000000000003 50.5" height="16.36179547755653" data-palette-color="#ffffff"><path d="M0.4-34.55L21.95-34.55 21.25-29.55 14.15-29.55 14.15 0 7.8 0 7.8-29.55 0.4-29.55 0.4-34.55ZM37.2-27.15Q40.05-27.15 41.7-25.1 43.35-23.05 43.35-19.6L43.35-19.6 43.35 0 37.2 0 37.2-18.9Q37.2-20.8 36.67-21.63 36.15-22.45 35.15-22.45L35.15-22.45Q33.05-22.45 31-18.5L31-18.5 31 0 24.85 0 24.85-37 31-37.65 31-23.3Q32.25-25.25 33.72-26.2 35.2-27.15 37.2-27.15L37.2-27.15ZM67.75-13.85Q67.75-13.4 67.59-11.3L67.59-11.3 53.95-11.3Q54.15-7.2 55.37-5.58 56.59-3.95 58.84-3.95L58.84-3.95Q60.4-3.95 61.65-4.48 62.9-5 64.34-6.15L64.34-6.15 66.9-2.65Q63.4 0.75 58.5 0.75L58.5 0.75Q53.3 0.75 50.52-2.85 47.75-6.45 47.75-13L47.75-13Q47.75-19.55 50.4-23.35 53.05-27.15 57.9-27.15L57.9-27.15Q62.55-27.15 65.15-23.78 67.75-20.4 67.75-13.85L67.75-13.85ZM61.75-15.3L61.75-15.65Q61.75-19.4 60.84-21.13 59.95-22.85 57.95-22.85L57.95-22.85Q56.09-22.85 55.12-21.18 54.15-19.5 53.95-15.3L53.95-15.3 61.75-15.3ZM94.04-27.15Q97.89-27.15 99.94-23.65 101.99-20.15 101.99-13.25L101.99-13.25Q101.99-6.75 99.69-3 97.39 0.75 93.39 0.75L93.39 0.75Q91.64 0.75 90.19-0.13 88.74-1 87.69-2.55L87.69-2.55 87.34 0 81.89 0 81.89-37 88.04-37.65 88.04-23.6Q89.09-25.3 90.62-26.23 92.14-27.15 94.04-27.15L94.04-27.15ZM91.74-3.9Q93.59-3.9 94.62-6 95.64-8.1 95.64-13.25L95.64-13.25Q95.64-18.6 94.72-20.58 93.79-22.55 92.09-22.55L92.09-22.55Q90.94-22.55 89.89-21.6 88.84-20.65 88.04-19.1L88.04-19.1 88.04-6.7Q88.69-5.45 89.67-4.67 90.64-3.9 91.74-3.9L91.74-3.9ZM125.44-13.85Q125.44-13.4 125.29-11.3L125.29-11.3 111.64-11.3Q111.84-7.2 113.06-5.58 114.29-3.95 116.54-3.95L116.54-3.95Q118.09-3.95 119.34-4.48 120.59-5 122.04-6.15L122.04-6.15 124.59-2.65Q121.09 0.75 116.19 0.75L116.19 0.75Q110.99 0.75 108.21-2.85 105.44-6.45 105.44-13L105.44-13Q105.44-19.55 108.09-23.35 110.74-27.15 115.59-27.15L115.59-27.15Q120.24-27.15 122.84-23.78 125.44-20.4 125.44-13.85L125.44-13.85ZM119.44-15.3L119.44-15.65Q119.44-19.4 118.54-21.13 117.64-22.85 115.64-22.85L115.64-22.85Q113.79-22.85 112.81-21.18 111.84-19.5 111.64-15.3L111.64-15.3 119.44-15.3ZM137.09-27.15Q141.79-27.15 145.04-24.05L145.04-24.05 142.69-20.7Q141.29-21.7 140.04-22.2 138.79-22.7 137.49-22.7L137.49-22.7Q136.04-22.7 135.21-21.93 134.39-21.15 134.39-19.8L134.39-19.8Q134.39-18.45 135.31-17.63 136.24-16.8 139.04-15.7L139.04-15.7Q142.49-14.35 144.14-12.5 145.79-10.65 145.79-7.55L145.79-7.55Q145.79-3.7 143.09-1.48 140.39 0.75 136.24 0.75L136.24 0.75Q133.54 0.75 131.26-0.23 128.99-1.2 127.29-2.95L127.29-2.95 130.29-6.25Q133.09-3.8 135.99-3.8L135.99-3.8Q137.64-3.8 138.59-4.67 139.54-5.55 139.54-7.1L139.54-7.1Q139.54-8.25 139.14-8.97 138.74-9.7 137.74-10.33 136.74-10.95 134.74-11.7L134.74-11.7Q131.29-13.05 129.81-14.85 128.34-16.65 128.34-19.45L128.34-19.45Q128.34-22.8 130.71-24.98 133.09-27.15 137.09-27.15L137.09-27.15ZM160.78-5L162.93-1.2Q160.48 0.75 157.18 0.75L157.18 0.75Q153.73 0.75 151.93-1.23 150.13-3.2 150.13-6.6L150.13-6.6 150.13-22 147.03-22 147.03-26.45 150.13-26.45 150.13-32.3 156.28-33.05 156.28-26.45 161.28-26.45 160.68-22 156.28-22 156.28-6.6Q156.28-4.2 158.33-4.2L158.33-4.2Q158.98-4.2 159.48-4.38 159.98-4.55 160.78-5L160.78-5ZM184.83-27.15Q186.98-27.15 188.73-26.43 190.48-25.7 192.08-24.15L192.08-24.15 189.43-20.65Q188.33-21.55 187.35-21.98 186.38-22.4 185.23-22.4L185.23-22.4Q182.98-22.4 181.83-20.28 180.68-18.15 180.68-13.1L180.68-13.1Q180.68-8.2 181.85-6.2 183.03-4.2 185.23-4.2L185.23-4.2Q186.33-4.2 187.23-4.6 188.13-5 189.33-5.85L189.33-5.85 192.08-2.3Q188.88 0.75 184.93 0.75L184.93 0.75Q179.83 0.75 177-2.73 174.18-6.2 174.18-13L174.18-13Q174.18-17.4 175.48-20.6 176.78-23.8 179.2-25.48 181.63-27.15 184.83-27.15L184.83-27.15ZM200.73 0.75Q198.03 0.75 196.45-0.93 194.88-2.6 194.88-5.4L194.88-5.4 194.88-37.05 201.03-37.7 201.03-5.65Q201.03-5 201.33-4.6 201.63-4.2 202.23-4.2L202.23-4.2Q202.58-4.2 202.9-4.3 203.23-4.4 203.33-4.4L203.33-4.4 204.53-0.2Q202.83 0.75 200.73 0.75L200.73 0.75ZM216.97-27.15Q221.97-27.15 224.75-23.65 227.52-20.15 227.52-13.25L227.52-13.25Q227.52-6.65 224.72-2.95 221.92 0.75 216.97 0.75L216.97 0.75Q212.02 0.75 209.22-2.88 206.42-6.5 206.42-13.25L206.42-13.25Q206.42-19.95 209.22-23.55 212.02-27.15 216.97-27.15L216.97-27.15ZM216.97-22.5Q214.82-22.5 213.82-20.38 212.82-18.25 212.82-13.25L212.82-13.25Q212.82-8.2 213.82-6.08 214.82-3.95 216.97-3.95L216.97-3.95Q219.12-3.95 220.12-6.08 221.12-8.2 221.12-13.25L221.12-13.25Q221.12-18.3 220.12-20.4 219.12-22.5 216.97-22.5L216.97-22.5ZM243.22-5L245.37-1.2Q242.92 0.75 239.62 0.75L239.62 0.75Q236.17 0.75 234.37-1.23 232.57-3.2 232.57-6.6L232.57-6.6 232.57-22 229.47-22 229.47-26.45 232.57-26.45 232.57-32.3 238.72-33.05 238.72-26.45 243.72-26.45 243.12-22 238.72-22 238.72-6.6Q238.72-4.2 240.77-4.2L240.77-4.2Q241.42-4.2 241.92-4.38 242.42-4.55 243.22-5L243.22-5ZM260.27-27.15Q263.12-27.15 264.77-25.1 266.42-23.05 266.42-19.6L266.42-19.6 266.42 0 260.27 0 260.27-18.9Q260.27-20.8 259.74-21.63 259.22-22.45 258.22-22.45L258.22-22.45Q256.12-22.45 254.07-18.5L254.07-18.5 254.07 0 247.92 0 247.92-37 254.07-37.65 254.07-23.3Q255.32-25.25 256.79-26.2 258.27-27.15 260.27-27.15L260.27-27.15ZM271.97-26.45L278.12-26.45 278.12 0 271.97 0 271.97-26.45ZM275.01-39.65Q276.67-39.65 277.69-38.6 278.72-37.55 278.72-35.9L278.72-35.9Q278.72-34.3 277.69-33.25 276.67-32.2 275.01-32.2L275.01-32.2Q273.37-32.2 272.34-33.25 271.31-34.3 271.31-35.9L271.31-35.9Q271.31-37.55 272.34-38.6 273.37-39.65 275.01-39.65L275.01-39.65ZM296.16-27.15Q299.01-27.15 300.66-25.1 302.31-23.05 302.31-19.6L302.31-19.6 302.31 0 296.16 0 296.16-18.9Q296.16-20.8 295.64-21.63 295.11-22.45 294.11-22.45L294.11-22.45Q292.01-22.45 289.96-18.5L289.96-18.5 289.96 0 283.81 0 283.81-26.45 289.16-26.45 289.61-23Q290.96-25.1 292.49-26.13 294.01-27.15 296.16-27.15L296.16-27.15ZM325.81-29.85L327.36-25.1Q326.31-24.6 324.84-24.4 323.36-24.2 321.16-24.2L321.16-24.2Q323.26-23.2 324.29-21.53 325.31-19.85 325.31-17.4L325.31-17.4Q325.31-13.4 322.86-10.95 320.41-8.5 316.21-8.5L316.21-8.5Q314.96-8.5 313.66-8.9L313.66-8.9Q312.76-8.15 312.76-6.85L312.76-6.85Q312.76-5.85 313.31-5.35 313.86-4.85 315.36-4.85L315.36-4.85 318.16-4.85Q322.16-4.85 324.51-2.78 326.86-0.7 326.86 2.5L326.86 2.5Q326.86 6.3 323.94 8.58 321.01 10.85 315.61 10.85L315.61 10.85Q309.91 10.85 307.64 8.75 305.36 6.65 305.36 2.6L305.36 2.6 310.81 2.6Q310.81 4.75 311.81 5.65 312.81 6.55 315.66 6.55L315.66 6.55Q318.41 6.55 319.56 5.6 320.71 4.65 320.71 2.9L320.71 2.9Q320.71 1.2 319.76 0.4 318.81-0.4 316.81-0.4L316.81-0.4 314.91-0.4Q311.11-0.4 309.36-1.75 307.61-3.1 307.61-5.45L307.61-5.45Q307.61-6.8 308.34-8.03 309.06-9.25 310.31-10.2L310.31-10.2Q308.26-11.5 307.31-13.3 306.36-15.1 306.36-17.7L306.36-17.7Q306.36-22.05 308.96-24.58 311.56-27.1 315.96-27.1L315.96-27.1Q319.21-27.1 321.34-27.8 323.46-28.5 325.81-29.85L325.81-29.85ZM315.96-23Q314.21-23 313.31-21.75 312.41-20.5 312.41-17.8L312.41-17.8Q312.41-15.25 313.31-13.88 314.21-12.5 315.91-12.5L315.91-12.5Q317.66-12.5 318.51-13.73 319.36-14.95 319.36-17.85L319.36-17.85Q319.36-20.55 318.54-21.78 317.71-23 315.96-23L315.96-23ZM356.86-6.4Q356.86-5.1 357.21-4.48 357.56-3.85 358.36-3.45L358.36-3.45 357.11 0.65Q355.06 0.4 353.83-0.45 352.61-1.3 352.01-3.05L352.01-3.05Q349.71 0.75 345.56 0.75L345.56 0.75Q342.26 0.75 340.31-1.48 338.36-3.7 338.36-7.4L338.36-7.4Q338.36-11.7 341.03-13.95 343.71-16.2 348.81-16.2L348.81-16.2 350.86-16.2 350.86-18.05Q350.86-20.55 349.98-21.58 349.11-22.6 347.16-22.6L347.16-22.6Q344.81-22.6 341.31-21.3L341.31-21.3 339.91-25.3Q341.91-26.2 344.06-26.68 346.21-27.15 348.16-27.15L348.16-27.15Q356.86-27.15 356.86-18.35L356.86-18.35 356.86-6.4ZM347.21-3.7Q349.61-3.7 350.86-7L350.86-7 350.86-12.55 349.41-12.55Q346.86-12.55 345.68-11.4 344.51-10.25 344.51-7.85L344.51-7.85Q344.51-5.8 345.21-4.75 345.91-3.7 347.21-3.7L347.21-3.7ZM374.3-27.1Q375.45-27.1 376.35-26.75L376.35-26.75 375.35-20.85Q374.35-21.1 373.5-21.1L373.5-21.1Q371.6-21.1 370.5-19.45 369.4-17.8 368.8-14.55L368.8-14.55 368.8 0 362.65 0 362.65-26.45 368-26.45 368.45-21.85Q370.3-27.1 374.3-27.1L374.3-27.1ZM398.05-13.85Q398.05-13.4 397.9-11.3L397.9-11.3 384.25-11.3Q384.45-7.2 385.68-5.58 386.9-3.95 389.15-3.95L389.15-3.95Q390.7-3.95 391.95-4.48 393.2-5 394.65-6.15L394.65-6.15 397.2-2.65Q393.7 0.75 388.8 0.75L388.8 0.75Q383.6 0.75 380.83-2.85 378.05-6.45 378.05-13L378.05-13Q378.05-19.55 380.7-23.35 383.35-27.15 388.2-27.15L388.2-27.15Q392.85-27.15 395.45-23.78 398.05-20.4 398.05-13.85L398.05-13.85ZM392.05-15.3L392.05-15.65Q392.05-19.4 391.15-21.13 390.25-22.85 388.25-22.85L388.25-22.85Q386.4-22.85 385.43-21.18 384.45-19.5 384.25-15.3L384.25-15.3 392.05-15.3ZM414.7-27.15Q417.55-27.15 419.2-25.1 420.85-23.05 420.85-19.6L420.85-19.6 420.85 0 414.7 0 414.7-18.9Q414.7-20.8 414.17-21.63 413.65-22.45 412.65-22.45L412.65-22.45Q410.55-22.45 408.5-18.5L408.5-18.5 408.5 0 402.35 0 402.35-26.45 407.7-26.45 408.15-23Q409.5-25.1 411.02-26.13 412.55-27.15 414.7-27.15L414.7-27.15ZM443.3-6.4Q443.3-5.1 443.65-4.48 444-3.85 444.8-3.45L444.8-3.45 443.55 0.65Q441.5 0.4 440.27-0.45 439.05-1.3 438.45-3.05L438.45-3.05Q436.15 0.75 432 0.75L432 0.75Q428.7 0.75 426.75-1.48 424.8-3.7 424.8-7.4L424.8-7.4Q424.8-11.7 427.47-13.95 430.15-16.2 435.25-16.2L435.25-16.2 437.3-16.2 437.3-18.05Q437.3-20.55 436.42-21.58 435.55-22.6 433.6-22.6L433.6-22.6Q431.25-22.6 427.75-21.3L427.75-21.3 426.35-25.3Q428.35-26.2 430.5-26.68 432.65-27.15 434.6-27.15L434.6-27.15Q443.3-27.15 443.3-18.35L443.3-18.35 443.3-6.4ZM433.65-3.7Q436.05-3.7 437.3-7L437.3-7 437.3-12.55 435.85-12.55Q433.3-12.55 432.12-11.4 430.95-10.25 430.95-7.85L430.95-7.85Q430.95-5.8 431.65-4.75 432.35-3.7 433.65-3.7L433.65-3.7Z" opacity="1" transform="matrix(1,0,0,1,0,0)" fill="#000000" class="slogan-text-1" data-fill-palette-color="quaternary" id="text-1"></path></svg></g></svg></g></svg></g></svg></g></svg></g></svg></g></svg></g><defs></defs></svg><rect width="320" height="360" fill="none" stroke="none" visibility="hidden"></rect></g></svg></g></svg>