<svg xmlns="http://www.w3.org/2000/svg" version="1.1" xmlns:xlink="http://www.w3.org/1999/xlink" xmlns:svgjs="http://svgjs.dev/svgjs" width="2000" height="1500" viewBox="0 0 2000 1500"><rect width="2000" height="1500" fill="#000000"></rect><g transform="matrix(0.75,0,0,0.75,249.2500000000001,-0.7499999999998863)"><svg viewBox="0 0 280 280" data-background-color="#ede1d1" preserveAspectRatio="xMidYMid meet" height="2000" width="2000" xmlns="http://www.w3.org/2000/svg" xmlns:xlink="http://www.w3.org/1999/xlink"><g id="tight-bounds" transform="matrix(1,0,0,1,0.13999999999998636,0.13999999999998636)"><svg viewBox="0 0 279.72 279.72" height="279.72" width="279.72"><g><svg viewBox="0 0 279.72 279.72" height="279.72" width="279.72"><g><svg viewBox="0 0 279.72 279.72" height="279.72" width="279.72"><g id="textblocktransform"><svg viewBox="0 0 279.72 279.72" height="279.72" width="279.72" id="textblock"><g><svg viewBox="0 0 279.72 279.72" height="279.72" width="279.72"><g transform="matrix(1,0,0,1,57.446704652707865,57.446704652707865)"><svg viewBox="0 0 164.8265906945843 164.8265906945843" height="164.8265906945843" width="164.8265906945843"><g id="icon-0"><circle r="82" cx="82.41329534729215" cy="82.41329534729215" fill="#ffffff" data-fill-palette-color="accent"></circle><svg xmlns="http://www.w3.org/2000/svg" xmlns:xlink="http://www.w3.org/1999/xlink" version="1.1" x="24.72398860418764" y="24.723988604187646" viewBox="0 -0.0001726075547609441 90.001 90.00017260755476" enable-background="new 0 0 90 90" xml:space="preserve" id="jxe-0" width="115.378613486209" height="115.378613486209" class="icon-jxe-0" data-fill-palette-color="quaternary"><path d="M88.396 31.557C87.783 21.295 86.366 12.015 82.729 6.349 81.886 5.059 80.481 3.706 78.421 2.758 76.265 1.76 73.599 1.048 70.536 0.576A53 53 0 0 0 62.607 0C59.786 0 57.11 0.204 54.674 0.576 51.612 1.048 48.945 1.761 46.79 2.758 44.795 3.723 43.11 5.345 42.935 5.473 40.856 7.411 39.664 10.145 38.696 13.275 35.901 22.627 35.597 36.449 35.577 43.76 35.577 46.668 35.638 48.512 35.64 48.537 35.689 50.071 36.877 51.293 38.315 51.293H45.181V55.842C45.181 56.592 45.468 57.326 45.965 57.859A2.62 2.62 0 0 0 47.859 58.696H77.354A2.62 2.62 0 0 0 79.248 57.859 2.98 2.98 0 0 0 80.031 55.842V41.525C81.681 40.475 83.33 39.324 84.738 38.111 85.637 37.33 86.445 36.534 87.116 35.611 87.763 34.693 88.393 33.6 88.423 32.025A5 5 0 0 0 88.396 31.557M58.083 6.589C59.377 6.426 60.979 6.339 62.576 6.339 64.334 6.337 66.105 6.446 67.451 6.641A19.6 19.6 0 0 1 65.505 8.798C64.78 9.501 64.023 10.117 63.418 10.499A4.4 4.4 0 0 1 62.69 10.886C62.643 10.906 62.603 10.918 62.573 10.927A2 2 0 0 1 62.228 10.782C61.291 10.345 59.578 8.874 58.34 7.423 58.11 7.158 57.891 6.892 57.692 6.637 57.821 6.621 57.952 6.604 58.083 6.589M80.821 34.132C79.472 35.219 77.724 36.378 76.031 37.406A2.6 2.6 0 0 0 75.534 37.808C75.51 37.826 75.482 37.837 75.459 37.855 75.459 37.853 75.378 37.918 75.168 38.071 74.749 38.382 73.896 38.981 72.778 39.642L71.534 38.05A56 56 0 0 1 74.894 35.677C76.922 34.337 78.644 33.325 78.647 33.322 79.499 32.819 80.029 31.861 80.029 30.823V23.193C80.029 21.616 78.832 20.339 77.353 20.339 75.876 20.339 74.678 21.615 74.678 23.193V29.163C73.976 29.598 73.062 30.173 72.077 30.824 69.908 32.27 67.473 33.955 65.858 35.65 64.881 36.692 64.811 38.364 65.695 39.496L70.033 45.049A2.61 2.61 0 0 0 72.093 46.073C72.475 46.073 72.86 45.987 73.222 45.807 73.74 45.549 74.217 45.288 74.676 45.031V52.986H50.534V22.242C50.534 21.489 50.248 20.753 49.749 20.222 49.252 19.691 48.562 19.386 47.858 19.386S46.464 19.691 45.964 20.222A2.98 2.98 0 0 0 45.18 22.242V45.582H40.936C40.931 45.042 40.928 44.433 40.928 43.761 40.928 39.055 41.096 31.422 41.958 24.454 42.386 20.974 42.993 17.659 43.789 15.028 44.565 12.387 45.616 10.493 46.413 9.815 46.416 9.812 46.505 9.731 46.671 9.591 47.152 9.163 48.382 8.222 48.926 7.993 49.648 7.656 50.552 7.331 51.593 7.04 51.65 7.181 51.708 7.318 51.768 7.455 52.661 9.33 54.231 11.246 56.08 13.059 57.005 13.945 57.982 14.762 59.012 15.417 60.055 16.049 61.108 16.614 62.578 16.649 64.256 16.598 65.408 15.897 66.584 15.126 68.308 13.927 69.941 12.293 71.267 10.677 71.927 9.865 72.501 9.067 72.963 8.271 73.18 7.848 73.4 7.477 73.576 7.026 74.637 7.321 75.555 7.65 76.286 7.992 77.506 8.566 78.044 9.178 78.354 9.636 80.825 13.22 82.57 22.114 83.054 31.87 82.85 32.222 82.005 33.218 80.821 34.132" fill="#000000" data-fill-palette-color="quaternary"></path><path d="M88.495 69.064C87.13 66.01 84.676 64.259 81.764 64.259 80.272 64.259 78.953 64.722 77.864 65.254 74.535 63.027 70.124 61.757 65.459 61.757 52.31 61.757 41.612 69.405 41.612 78.807 41.612 82.166 44.046 86.714 48.118 88.506 50.928 89.746 54.239 90 58.344 90 59.428 90 60.563 89.982 61.733 89.962A237 237 0 0 1 67.645 89.932C68.354 89.934 69.051 89.938 69.735 89.938 73.718 89.938 77.89 89.837 81.271 88.631 85.475 87.131 90.001 83.418 90.001 78.808 90 74.458 89.522 71.361 88.495 69.064M79.743 83.758C77.156 84.68 73.679 84.798 69.734 84.798 68.359 84.798 66.928 84.784 65.458 84.784 62.943 84.784 60.541 84.859 58.345 84.859 54.954 84.859 52.049 84.678 49.955 83.757 48.849 83.27 47.97 82.361 47.367 81.408 50.385 81.727 57.245 82.346 64.915 82.346L65.274 82.344C66.476 82.34 67.694 82.323 68.921 82.285 69.313 82.271 69.704 82.255 70.097 82.239 71.194 82.194 72.291 82.135 73.384 82.057 73.657 82.038 73.93 82.011 74.202 81.99A82 82 0 0 0 77.394 81.674 64 64 0 0 0 81.426 81.063C82.3 80.9 82.885 80.011 82.731 79.081 82.579 78.148 81.747 77.526 80.873 77.689A62 62 0 0 1 76.638 78.314C74.873 73.324 70.878 70.069 70.818 69.949 70.127 69.355 69.117 69.473 68.561 70.21 68.003 70.945 68.114 72.024 68.804 72.617H68.803S68.86 72.664 68.996 72.791C69.71 73.41 71.985 75.789 73.285 78.631 72.882 78.66 72.479 78.685 72.074 78.71 70.124 74.968 67.256 72.621 67.205 72.52 66.514 71.925 65.504 72.043 64.947 72.779S64.5 74.593 65.19 75.187V75.185C65.19 75.187 65.247 75.236 65.382 75.361 65.889 75.799 67.184 77.126 68.357 78.874 67.886 78.885 67.417 78.899 66.949 78.905 65.296 76.611 63.629 75.233 63.591 75.156 62.901 74.561 61.89 74.679 61.334 75.416 60.777 76.15 60.888 77.229 61.578 77.823H61.576S61.633 77.872 61.771 77.998C61.969 78.171 62.293 78.483 62.68 78.903A176 176 0 0 1 51.718 78.373 151 151 0 0 1 46.497 77.872C47.302 72.073 55.48 66.896 65.456 66.896 69.865 66.896 74.511 68.338 77.149 71.153 77.195 71.204 77.259 71.225 77.337 71.225 77.691 71.225 78.354 70.767 79.15 70.311 79.945 69.854 80.875 69.396 81.762 69.396 83.558 69.396 85.183 71.27 85.183 78.806 85.184 80.321 82.696 82.705 79.743 83.758" fill="#000000" data-fill-palette-color="quaternary"></path><path d="M43.311 60.596C42.135 59.338 41.461 57.606 41.461 55.842V55.197H41.036V69.001C42.404 67.021 44.196 65.206 46.389 63.619V62.409A6.37 6.37 0 0 1 43.311 60.596M34.612 83.957H25.87V38.044C25.87 36.467 24.672 35.19 23.194 35.19S20.518 36.467 20.518 38.044V83.957H11.776C8.229 83.957 5.353 80.889 5.353 77.104V14.684C5.353 11.631 7.226 9.047 9.812 8.162V14.733C9.812 16.307 11.011 17.587 12.488 17.587 13.967 17.587 15.167 16.307 15.167 14.733V7.833H18.633V26.858A7 7 0 0 0 20.418 27.102 7 7 0 0 0 22.202 26.858C25.387 26.004 27.756 22.933 27.756 19.275V7.833H32.116V14.73C32.116 15.964 32.852 17.005 33.878 17.404 34.253 15.461 34.678 13.675 35.158 12.069 35.995 9.364 37.265 6.015 39.682 3.365A11.1 11.1 0 0 0 34.612 2.124H11.776C5.282 2.124 0 7.758 0 14.684V77.104C0 84.031 5.282 89.666 11.776 89.666H34.612C37 89.666 39.221 88.898 41.079 87.59A16.3 16.3 0 0 1 38.492 82.556C37.414 83.43 36.073 83.957 34.612 83.957M22.202 7.833H24.187V19.275C24.187 20.803 23.378 22.116 22.202 22.796z" fill="#000000" data-fill-palette-color="quaternary"></path></svg></g></svg></g><g id="text-0"><path d="M31.15 103.725l2.535 0.779c-0.037 1.215-0.238 2.418-0.604 3.608v0c-0.423 1.377-1.13 2.287-2.121 2.733-0.992 0.445-2.265 0.429-3.821-0.049v0l-13.762-4.227-0.732 2.382-2.497-0.767 0.773-2.517-4.3-2.424 0.702-2.285 4.61 1.415 1.171-3.812 2.497 0.767-1.171 3.812 13.022 4c0.992 0.305 1.737 0.355 2.235 0.15 0.502-0.196 0.875-0.695 1.121-1.495v0c0.134-0.435 0.248-1.126 0.342-2.07z" fill="#ffffff" data-fill-palette-color="primary"></path><path d="M37.658 43.612l2.462-2.607 2.491 2.353-2.463 2.607zM43.486 49.118l2.462-2.608 15.688 14.819-2.463 2.607z" fill="#ffffff" data-fill-palette-color="primary"></path><path d="M94.294 7.056l3.374-1.215 10.029 27.846-3.375 1.215z" fill="#ffffff" data-fill-palette-color="primary"></path><path d="M161.312 0l3.56 0.438-3.616 29.375-3.559-0.438z" fill="#ffffff" data-fill-palette-color="primary"></path><path d="M202.799 55.621v0c-0.759-0.585-1.366-1.146-1.823-1.684v0l1.644-2.133c0.349 0.37 0.767 0.743 1.255 1.12v0c0.886 0.683 1.957 0.983 3.211 0.902 1.26-0.077 2.858-0.757 4.793-2.04v0l6.329-22.239 3.033 2.336-3.674 12.224c-0.259 0.874-0.567 1.855-0.922 2.942-0.356 1.087-0.703 2.02-1.041 2.8v0c0.842-0.544 1.682-1.08 2.521-1.609 0.833-0.533 1.662-1.07 2.484-1.612v0l10.635-7.037 3 2.311-19.744 12.03c-1.054 0.633-2.008 1.163-2.86 1.588-0.847 0.43-1.594 0.746-2.241 0.95v0c-1.301 0.427-2.49 0.571-3.568 0.434-1.082-0.132-2.093-0.56-3.032-1.283z" fill="#ffffff" data-fill-palette-color="primary"></path><path d="M261.128 95.982v0l-11.671 4.498-1.29-3.347 15.834-6.102c1.181-0.455 2.124-0.829 2.829-1.122 0.705-0.293 1.182-0.509 1.43-0.648v0l1.218 3.159c-0.228 0.117-0.516 0.253-0.866 0.409-0.355 0.158-0.746 0.327-1.172 0.506-0.433 0.181-0.881 0.368-1.345 0.561v0l0.022 0.056c1.684 0.234 3.008 0.747 3.973 1.538 0.971 0.788 1.746 1.933 2.324 3.432v0c0.853 2.212 0.909 4.046 0.171 5.501-0.736 1.461-2.339 2.667-4.808 3.618v0l-13.414 5.169-1.297-3.365 12.768-4.92c1.925-0.742 3.146-1.568 3.664-2.478 0.515-0.916 0.479-2.137-0.109-3.662v0c-0.621-1.612-1.665-2.671-3.129-3.176-1.465-0.505-3.176-0.38-5.132 0.373z" fill="#ffffff" data-fill-palette-color="primary"></path><path d="M12.751 144.83c0-1.873 1.519-3.392 3.392-3.392 1.873 0 3.392 1.519 3.391 3.392 0 1.873-1.519 3.392-3.391 3.392-1.873 0-3.392-1.519-3.392-3.392z" fill="#ffffff" data-fill-palette-color="primary"></path><path d="M265.673 144.83c0-1.873 1.519-3.392 3.392-3.392 1.873 0 3.392 1.519 3.392 3.392 0 1.873-1.519 3.392-3.392 3.392-1.873 0-3.392-1.519-3.392-3.392z" fill="#ffffff" data-fill-palette-color="primary"></path></g><g id="text-1"><path d="M17.037 186.899l-1.822 0.536c-0.455-0.739-0.808-1.536-1.059-2.39v0c-0.289-0.983-0.224-1.805 0.196-2.467 0.413-0.659 1.176-1.152 2.287-1.479v0l9.879-2.907-0.502-1.706 1.792-0.528 0.531 1.802 3.521-0.24 0.482 1.638-3.305 0.973 0.805 2.737-1.793 0.528-0.805-2.737-9.349 2.751c-0.707 0.208-1.171 0.47-1.391 0.787-0.221 0.316-0.246 0.764-0.077 1.342v0c0.091 0.308 0.294 0.762 0.61 1.36z" fill="#ffffff" data-fill-palette-color="primary"></path><path d="M29.512 189.338l0.015 0.037c1.137 0.134 2.071 0.473 2.803 1.016 0.725 0.545 1.309 1.368 1.752 2.467v0c0.626 1.553 0.682 2.859 0.17 3.918-0.51 1.065-1.638 1.948-3.384 2.651v0l-9.533 3.84-0.965-2.395 9.077-3.656c1.292-0.52 2.133-1.123 2.522-1.806 0.395-0.686 0.379-1.561-0.049-2.623v0c-0.45-1.118-1.199-1.856-2.246-2.215-1.049-0.364-2.233-0.281-3.55 0.249v0l-8.434 3.397-0.957-2.376 19.626-7.905 0.957 2.376-5.107 2.057c-0.354 0.143-0.731 0.283-1.129 0.423-0.399 0.139-0.744 0.26-1.035 0.362-0.291 0.103-0.469 0.163-0.533 0.183z" fill="#ffffff" data-fill-palette-color="primary"></path><path d="M37.27 216.696l-5.561-9.492c-1.526 0.894-2.517 1.898-2.974 3.011-0.463 1.117-0.339 2.283 0.371 3.497v0c0.562 0.959 1.206 1.615 1.932 1.965 0.726 0.351 1.444 0.458 2.156 0.321v0l0.582 2.267c-2.565 0.431-4.674-0.763-6.325-3.583v0c-1.151-1.965-1.441-3.805-0.871-5.521 0.567-1.722 2.006-3.26 4.318-4.614v0c2.196-1.286 4.184-1.756 5.963-1.409 1.776 0.341 3.222 1.466 4.339 3.372v0c1.151 1.965 1.422 3.778 0.811 5.44-0.613 1.671-2.095 3.195-4.446 4.573v0zM33.423 206.234l4.205 7.178c1.327-0.941 2.142-1.895 2.444-2.864 0.296-0.965 0.119-2.003-0.531-3.112v0c-0.63-1.075-1.486-1.714-2.567-1.919-1.086-0.21-2.269 0.029-3.551 0.717z" fill="#ffffff" data-fill-palette-color="primary"></path><path d="M55.709 237.551v0c-1.976 1.829-3.779 2.854-5.408 3.075-1.625 0.217-3.078-0.368-4.361-1.754v0c-0.796-0.86-1.303-1.719-1.521-2.576-0.213-0.852-0.142-1.776 0.214-2.771v0l-0.021-0.023c-0.138 0.127-0.344 0.309-0.618 0.545-0.279 0.231-0.539 0.444-0.778 0.638-0.24 0.195-0.391 0.307-0.454 0.338v0l-1.686-1.821c0.21-0.148 0.513-0.397 0.911-0.747 0.397-0.35 0.891-0.797 1.481-1.343v0l13.198-12.214 1.74 1.88-4.424 4.094c-0.226 0.209-0.474 0.434-0.744 0.675-0.279 0.24-0.576 0.497-0.89 0.769v0l0.034 0.037c1.046-0.32 1.992-0.338 2.839-0.054 0.847 0.284 1.666 0.854 2.457 1.709v0c1.319 1.426 1.809 2.921 1.469 4.486-0.34 1.565-1.486 3.251-3.438 5.057zM53.814 235.636v0c1.588-1.469 2.53-2.729 2.827-3.779 0.297-1.05 0.008-2.047-0.866-2.991v0c-0.978-1.057-2.056-1.492-3.233-1.306-1.178 0.187-2.553 1.008-4.127 2.464v0c-1.489 1.378-2.367 2.634-2.634 3.765-0.271 1.127 0.087 2.224 1.074 3.291v0c0.878 0.949 1.864 1.309 2.958 1.081 1.094-0.228 2.428-1.07 4.001-2.525z" fill="#ffffff" data-fill-palette-color="primary"></path><path d="M69.146 249.304l-8.555-6.917c-1.112 1.375-1.685 2.664-1.719 3.868-0.039 1.209 0.489 2.256 1.582 3.14v0c0.865 0.699 1.698 1.085 2.502 1.157 0.803 0.072 1.513-0.082 2.13-0.461v0l1.345 1.915c-2.247 1.309-4.642 0.937-7.183-1.119v0c-1.771-1.432-2.692-3.051-2.765-4.857-0.077-1.811 0.726-3.758 2.411-5.842v0c1.6-1.979 3.294-3.12 5.081-3.424 1.782-0.308 3.532 0.233 5.251 1.623v0c1.771 1.432 2.664 3.033 2.68 4.803 0.017 1.779-0.832 3.729-2.546 5.848v0zM61.853 240.875l6.468 5.23c0.91-1.349 1.335-2.53 1.275-3.542-0.064-1.008-0.596-1.916-1.595-2.725v0c-0.969-0.783-1.995-1.079-3.08-0.888-1.09 0.187-2.113 0.828-3.068 1.925z" fill="#ffffff" data-fill-palette-color="primary"></path><path d="M81.795 260.46v0c-0.75 1.245-1.799 1.923-3.148 2.033-1.345 0.104-2.864-0.353-4.557-1.373v0c-1.641-0.988-2.746-2.022-3.316-3.1-0.564-1.075-0.636-2.267-0.215-3.577v0l2.173 0.793c-0.241 0.816-0.168 1.564 0.22 2.243 0.391 0.689 1.105 1.346 2.144 1.972v0c1.119 0.674 2.04 0.994 2.763 0.961 0.72-0.027 1.286-0.383 1.698-1.066v0c0.314-0.522 0.389-1.056 0.225-1.6-0.159-0.541-0.573-1.158-1.243-1.851v0c-0.795-0.823-1.422-1.482-1.881-1.977-0.46-0.496-0.805-0.896-1.037-1.2-0.226-0.3-0.396-0.555-0.512-0.765v0c-0.353-0.635-0.546-1.267-0.581-1.898-0.029-0.627 0.154-1.268 0.548-1.922v0c0.726-1.205 1.709-1.864 2.949-1.977 1.235-0.116 2.676 0.322 4.323 1.314v0c1.457 0.878 2.461 1.834 3.01 2.869 0.553 1.029 0.601 2.176 0.144 3.441v0l-2.13-0.943c0.232-0.658 0.176-1.305-0.167-1.942-0.343-0.637-0.963-1.225-1.858-1.764v0c-0.993-0.598-1.816-0.886-2.469-0.866-0.656 0.011-1.169 0.324-1.538 0.938v0c-0.27 0.448-0.356 0.896-0.259 1.345 0.093 0.455 0.463 1.002 1.11 1.642v0c0.867 0.858 1.676 1.709 2.426 2.553 0.742 0.846 1.229 1.53 1.461 2.053v0c0.259 0.609 0.372 1.213 0.34 1.811-0.032 0.598-0.24 1.216-0.623 1.853z" fill="#ffffff" data-fill-palette-color="primary"></path><path d="M90.788 267.21l-0.799 1.722c-0.855-0.146-1.687-0.406-2.495-0.781v0c-0.93-0.431-1.504-1.023-1.724-1.774-0.223-0.746-0.09-1.644 0.398-2.695v0l4.335-9.341-1.613-0.749 0.787-1.695 1.704 0.791 2.143-2.804 1.549 0.719-1.45 3.126 2.588 1.201-0.787 1.695-2.588-1.201-4.103 8.839c-0.31 0.668-0.419 1.19-0.327 1.565 0.092 0.375 0.411 0.689 0.958 0.943v0c0.292 0.135 0.766 0.282 1.424 0.439z" fill="#ffffff" data-fill-palette-color="primary"></path><path d="M109.721 275.835v0c-2.085-0.553-3.503-1.632-4.255-3.238-0.751-1.612-0.791-3.681-0.122-6.206v0c0.666-2.512 1.726-4.278 3.182-5.299 1.451-1.029 3.205-1.271 5.264-0.725v0c1.528 0.405 2.689 1.135 3.483 2.191 0.794 1.056 1.137 2.311 1.029 3.765v0l-2.596-0.48c0.088-0.857-0.064-1.6-0.458-2.231-0.396-0.625-1.076-1.065-2.041-1.321v0c-1.314-0.348-2.382-0.164-3.202 0.554-0.821 0.718-1.505 2.109-2.053 4.175v0c-0.527 1.988-0.602 3.54-0.226 4.659 0.368 1.123 1.183 1.852 2.445 2.186v0c0.88 0.233 1.679 0.189 2.395-0.134 0.723-0.321 1.283-0.959 1.681-1.914v0l2.472 0.832c-0.383 0.924-0.924 1.671-1.623 2.241-0.699 0.57-1.504 0.942-2.416 1.116-0.917 0.166-1.903 0.109-2.959-0.171z" fill="#ffffff" data-fill-palette-color="primary"></path><path d="M124.145 257.107l2.525 0.434-3.579 20.853-2.525-0.434z" fill="#ffffff" data-fill-palette-color="primary"></path><path d="M142.988 272.132v0c-0.165 2.694-0.879 4.663-2.144 5.908-1.264 1.245-3.026 1.798-5.285 1.659v0c-2.253-0.138-3.909-0.927-4.968-2.367-1.066-1.441-1.52-3.455-1.361-6.042v0c0.163-2.661 0.86-4.618 2.09-5.871 1.238-1.26 3.003-1.819 5.296-1.679v0c2.353 0.144 4.045 0.898 5.076 2.263 1.031 1.358 1.463 3.401 1.296 6.129zM140.3 271.967v0c0.13-2.126-0.09-3.689-0.659-4.69-0.576-1.002-1.606-1.548-3.091-1.639v0c-1.504-0.092-2.621 0.333-3.349 1.275-0.729 0.942-1.157 2.456-1.284 4.541v0c-0.124 2.032 0.113 3.577 0.713 4.634 0.599 1.063 1.604 1.638 3.015 1.724v0c1.538 0.094 2.668-0.333 3.39-1.282 0.716-0.949 1.138-2.47 1.265-4.563z" fill="#ffffff" data-fill-palette-color="primary"></path><path d="M154.091 277.287l0.105 1.896c-0.823 0.274-1.68 0.435-2.569 0.484v0c-1.023 0.057-1.809-0.195-2.356-0.754-0.547-0.553-0.853-1.408-0.917-2.566v0l-0.57-10.281-1.776 0.098-0.103-1.866 1.875-0.104 0.572-3.483 1.705-0.094 0.191 3.44 2.849-0.158 0.103 1.866-2.849 0.158 0.54 9.73c0.041 0.736 0.19 1.247 0.448 1.535 0.257 0.288 0.687 0.415 1.289 0.381v0c0.321-0.018 0.809-0.112 1.463-0.282z" fill="#ffffff" data-fill-palette-color="primary"></path><path d="M159.32 265.701l0.039-0.006c0.391-1.076 0.934-1.908 1.63-2.496 0.697-0.581 1.631-0.961 2.804-1.141v0c1.655-0.254 2.939-0.01 3.852 0.731 0.92 0.74 1.522 2.04 1.807 3.9v0l1.556 10.159-2.552 0.391-1.482-9.672c-0.211-1.377-0.605-2.333-1.181-2.868-0.578-0.542-1.432-0.726-2.565-0.552v0c-1.192 0.183-2.082 0.742-2.67 1.679-0.595 0.938-0.785 2.109-0.569 3.512v0l1.376 8.988-2.532 0.388-3.204-20.914 2.533-0.388 0.833 5.442c0.058 0.377 0.109 0.776 0.153 1.196 0.044 0.42 0.083 0.783 0.116 1.09 0.033 0.307 0.052 0.493 0.056 0.561z" fill="#ffffff" data-fill-palette-color="primary"></path><path d="M171.783 254.793l2.489-0.649 0.619 2.372-2.489 0.649zM173.229 260.334l2.488-0.649 3.896 14.931-2.488 0.649z" fill="#ffffff" data-fill-palette-color="primary"></path><path d="M185.011 263.296v0l3.141 8.372-2.399 0.9-4.262-11.363c-0.318-0.847-0.581-1.52-0.79-2.022-0.205-0.51-0.356-0.854-0.452-1.032v0l2.267-0.85c0.082 0.162 0.179 0.373 0.29 0.631 0.109 0.252 0.227 0.53 0.356 0.833 0.124 0.311 0.256 0.634 0.395 0.967v0l0.037-0.014c0.178-1.204 0.553-2.149 1.125-2.836 0.566-0.684 1.388-1.229 2.467-1.634v0c1.587-0.595 2.898-0.626 3.936-0.092 1.037 0.534 1.889 1.688 2.554 3.463v0l3.609 9.623-2.417 0.907-3.437-9.162c-0.517-1.38-1.1-2.256-1.747-2.628-0.65-0.379-1.524-0.362-2.621 0.049v0c-1.154 0.433-1.917 1.173-2.289 2.222-0.368 1.039-0.289 2.262 0.237 3.666z" fill="#ffffff" data-fill-palette-color="primary"></path><path d="M211.255 267.699v0c-1.473 0.811-2.804 1.17-3.995 1.076-1.2-0.096-2.217-0.61-3.051-1.542v0l2.082-1.571c0.492 0.547 1.089 0.846 1.79 0.896 0.698 0.059 1.463-0.141 2.296-0.6v0c1.115-0.614 1.773-1.404 1.974-2.372 0.198-0.973-0.061-2.111-0.779-3.413v0l-1.197-2.174-0.026 0.015c0.047 1.098-0.178 2.071-0.676 2.918-0.5 0.841-1.246 1.535-2.237 2.081v0c-1.66 0.914-3.18 1.036-4.558 0.366-1.384-0.667-2.726-2.18-4.025-4.539v0c-1.315-2.388-1.866-4.382-1.654-5.982 0.206-1.597 1.163-2.866 2.87-3.806v0c0.956-0.527 1.908-0.764 2.854-0.711 0.943 0.046 1.831 0.368 2.664 0.964v0l0.018-0.01c-0.09-0.164-0.225-0.43-0.405-0.798-0.176-0.362-0.34-0.707-0.491-1.037-0.145-0.333-0.222-0.52-0.229-0.562v0l2.138-1.177c0.202 0.478 0.692 1.423 1.471 2.837v0l5.69 10.331c1.047 1.901 1.358 3.584 0.933 5.049-0.415 1.467-1.567 2.721-3.456 3.761zM208.034 253.749v0c-0.901-1.637-1.95-2.742-3.144-3.315-1.192-0.582-2.308-0.587-3.346-0.015v0c-1.15 0.633-1.759 1.512-1.829 2.636-0.063 1.121 0.419 2.614 1.446 4.479v0c1.018 1.848 1.996 3.041 2.935 3.579 0.933 0.541 1.995 0.484 3.186-0.171v0c1.068-0.588 1.679-1.533 1.834-2.834 0.164-1.299-0.196-2.752-1.082-4.359z" fill="#ffffff" data-fill-palette-color="primary"></path><path d="M230.916 246.716v0c-1.158 1.036-2.299 1.508-3.423 1.418-1.129-0.087-2.169-0.662-3.12-1.725v0c-1.063-1.188-1.488-2.452-1.276-3.792 0.217-1.335 1.176-2.804 2.878-4.408v0l2.543-2.355-0.556-0.622c-0.839-0.938-1.637-1.434-2.393-1.485-0.761-0.047-1.566 0.309-2.415 1.068v0c-0.859 0.768-1.351 1.473-1.476 2.116-0.13 0.638 0.05 1.312 0.542 2.023v0l-2.16 1.594c-1.524-2.357-0.911-4.766 1.84-7.226v0c1.443-1.29 2.825-1.93 4.148-1.918 1.318 0.007 2.54 0.639 3.665 1.898v0l4.428 4.949c0.509 0.569 0.966 0.929 1.37 1.08 0.404 0.151 0.816 0.038 1.235-0.337v0c0.195-0.174 0.382-0.382 0.561-0.623v0l1.059 1.183c-0.186 0.274-0.388 0.536-0.606 0.784-0.227 0.248-0.466 0.484-0.716 0.708v0c-0.709 0.634-1.388 0.909-2.038 0.825-0.659-0.084-1.364-0.505-2.114-1.263v0l-0.067 0.06c0.297 1.316 0.284 2.447-0.039 3.392-0.323 0.945-0.946 1.83-1.87 2.656zM230.561 238.137l-0.844-0.943-2.049 1.914c-0.889 0.804-1.488 1.506-1.796 2.105v0c-0.317 0.589-0.44 1.171-0.368 1.744 0.067 0.578 0.358 1.154 0.872 1.728v0c0.558 0.624 1.156 0.956 1.794 0.996 0.643 0.036 1.277-0.225 1.901-0.783v0c0.709-0.634 1.19-1.352 1.443-2.154v0c0.258-0.806 0.297-1.627 0.116-2.462-0.186-0.84-0.542-1.555-1.069-2.145z" fill="#ffffff" data-fill-palette-color="primary"></path><path d="M237.207 228.969v0l5.991 5.357-1.708 1.91-8.822-7.889c-0.404-0.362-0.835-0.734-1.293-1.116-0.458-0.392-0.941-0.797-1.448-1.214v0l1.614-1.805c0.343 0.28 0.649 0.531 0.917 0.753 0.274 0.227 0.512 0.422 0.716 0.586 0.199 0.169 0.366 0.309 0.5 0.42 0.134 0.111 0.234 0.196 0.299 0.254v0l0.033-0.038c-0.502-0.835-0.831-1.552-0.988-2.15v0c-0.131-0.567-0.124-1.067 0.023-1.503 0.146-0.445 0.429-0.901 0.849-1.37v0c0.237-0.265 0.504-0.493 0.801-0.685v0l1.752 1.567c-0.289 0.182-0.629 0.493-1.022 0.932v0c-0.71 0.794-0.908 1.704-0.595 2.73 0.309 1.031 1.102 2.118 2.381 3.261z" fill="#ffffff" data-fill-palette-color="primary"></path><path d="M250.898 212.09l-6.34 8.991c1.445 1.019 2.769 1.506 3.973 1.461 1.209-0.041 2.219-0.636 3.029-1.785v0c0.641-0.909 0.971-1.766 0.99-2.572 0.019-0.806-0.181-1.504-0.6-2.095v0l1.822-1.469c1.454 2.156 1.24 4.57-0.644 7.241v0c-1.312 1.861-2.868 2.887-4.665 3.078-1.802 0.196-3.798-0.478-5.988-2.021v0c-2.08-1.467-3.33-3.082-3.75-4.845-0.424-1.758 0.001-3.54 1.274-5.346v0c1.312-1.861 2.851-2.858 4.616-2.99 1.774-0.134 3.775 0.585 6.004 2.155v0zM242.966 219.921l4.794-6.798c-1.406-0.819-2.612-1.166-3.619-1.04-1.001 0.13-1.872 0.72-2.613 1.772v0c-0.718 1.018-0.946 2.062-0.684 3.131 0.258 1.075 0.965 2.054 2.122 2.935z" fill="#ffffff" data-fill-palette-color="primary"></path><path d="M252.94 204.545v0l7.94 4.111-1.178 2.275-10.777-5.58c-0.803-0.416-1.45-0.739-1.941-0.971-0.494-0.241-0.836-0.395-1.027-0.464v0l1.113-2.15c0.17 0.065 0.383 0.157 0.639 0.274 0.25 0.114 0.524 0.241 0.822 0.38 0.3 0.148 0.614 0.299 0.941 0.454v0l0.019-0.036c-0.675-1.013-1.03-1.966-1.065-2.859-0.038-0.887 0.207-1.842 0.737-2.865v0c0.779-1.505 1.732-2.406 2.86-2.706 1.128-0.299 2.533-0.012 4.216 0.86v0l9.126 4.725-1.187 2.293-8.689-4.499c-1.308-0.677-2.328-0.937-3.058-0.78-0.736 0.154-1.374 0.752-1.913 1.793v0c-0.567 1.094-0.637 2.155-0.211 3.183 0.423 1.018 1.301 1.873 2.633 2.562z" fill="#ffffff" data-fill-palette-color="primary"></path><path d="M269.268 190.076v0c-0.497 1.472-1.258 2.445-2.28 2.919-1.025 0.481-2.213 0.493-3.565 0.037v0c-1.51-0.51-2.503-1.401-2.978-2.672-0.469-1.268-0.358-3.02 0.333-5.253v0l1.052-3.303-0.79-0.267c-1.193-0.403-2.131-0.441-2.814-0.113-0.685 0.334-1.21 1.04-1.575 2.118v0c-0.369 1.091-0.45 1.948-0.243 2.57 0.201 0.619 0.69 1.117 1.468 1.493v0l-1.093 2.451c-2.488-1.3-3.141-3.698-1.959-7.195v0c0.62-1.834 1.508-3.071 2.665-3.712 1.151-0.643 2.525-0.695 4.124-0.155v0l6.291 2.126c0.723 0.244 1.298 0.333 1.724 0.265 0.426-0.068 0.729-0.369 0.909-0.902v0c0.084-0.247 0.144-0.52 0.182-0.819v0l1.503 0.508c-0.027 0.33-0.074 0.657-0.14 0.982-0.075 0.328-0.167 0.651-0.274 0.967v0c-0.304 0.901-0.76 1.475-1.367 1.723-0.615 0.252-1.436 0.232-2.462-0.058v0l-0.029 0.086c0.907 0.999 1.452 1.99 1.637 2.971 0.184 0.981 0.078 2.059-0.319 3.233zM264.733 182.785l-1.199-0.405-0.84 2.674c-0.377 1.138-0.553 2.044-0.526 2.718v0c0.014 0.669 0.194 1.236 0.539 1.698 0.343 0.469 0.88 0.828 1.61 1.074v0c0.793 0.268 1.477 0.262 2.052-0.016 0.577-0.286 1-0.825 1.268-1.619v0c0.304-0.901 0.369-1.763 0.195-2.585v0c-0.172-0.829-0.543-1.562-1.113-2.2-0.576-0.64-1.238-1.086-1.986-1.339z" fill="#ffffff" data-fill-palette-color="primary"></path></g></svg></g></svg></g></svg></g></svg></g><defs></defs></svg><rect width="279.72" height="279.72" fill="none" stroke="none" visibility="hidden"></rect></g></svg></g></svg>